<?xml version="1.0" encoding="UTF-8" standalone="no"?>
<!-- Created with Inkscape (http://www.inkscape.org/) -->

<svg
   xmlns:dc="http://purl.org/dc/elements/1.1/"
   xmlns:cc="http://creativecommons.org/ns#"
   xmlns:rdf="http://www.w3.org/1999/02/22-rdf-syntax-ns#"
   xmlns:svg="http://www.w3.org/2000/svg"
   xmlns="http://www.w3.org/2000/svg"
   xmlns:sodipodi="http://sodipodi.sourceforge.net/DTD/sodipodi-0.dtd"
   xmlns:inkscape="http://www.inkscape.org/namespaces/inkscape"
   width="100mm"
   height="100mm"
   viewBox="0 0 100 100"
   version="1.1"
   id="svg5978"
   inkscape:version="0.92.0 r15299"
   sodipodi:docname="1.svg">
  <defs
     id="defs5972" />
  <sodipodi:namedview
     id="base"
     pagecolor="#ffffff"
     bordercolor="#666666"
     borderopacity="1.0"
     inkscape:pageopacity="0.0"
     inkscape:pageshadow="2"
     inkscape:zoom="0.7"
     inkscape:cx="168.01047"
     inkscape:cy="332.15137"
     inkscape:document-units="mm"
     inkscape:current-layer="g6550"
     showgrid="false"
     fit-margin-top="0"
     fit-margin-left="0"
     fit-margin-right="0"
     fit-margin-bottom="0"
     inkscape:window-width="1920"
     inkscape:window-height="1017"
     inkscape:window-x="1358"
     inkscape:window-y="-8"
     inkscape:window-maximized="1" />
  <metadata
     id="metadata5975">
    <rdf:RDF>
      <cc:Work
         rdf:about="">
        <dc:format>image/svg+xml</dc:format>
        <dc:type
           rdf:resource="http://purl.org/dc/dcmitype/StillImage" />
        <dc:title></dc:title>
      </cc:Work>
    </rdf:RDF>
  </metadata>
  <g
     inkscape:label="Layer 1"
     inkscape:groupmode="layer"
     id="layer1"
     transform="translate(6.4251747,-89.005951)">
    <circle
       style="opacity:1;fill:#000000;fill-opacity:0;fill-rule:nonzero;stroke:none;stroke-width:0.11661877;stroke-linejoin:round;stroke-miterlimit:4;stroke-dasharray:none;stroke-dashoffset:0;stroke-opacity:1"
       id="path6541"
       cx="43.574825"
       cy="139.00595"
       r="50" />
    <g
       id="g6550"
       transform="matrix(0.66746087,0,0,0.66746087,7.2458852,56.316291)">
      <polygon
         style="fill:#db3f89;fill-opacity:0.94117647"
         points="407.188,474.264 422.14,429.424 462.868,445.712 427.38,346.56 442.444,341.168 486.404,464 465.508,464 431.948,450.576 416.812,496 397.132,496 363.396,386.352 378.692,381.648 "
         id="polygon5228"
         transform="matrix(0.26458333,0,0,0.26458333,-41.626819,38.119043)" />
      <polygon
         style="fill:#db3f89;fill-opacity:0.94117647"
         points="239.684,464 283.644,341.168 298.708,346.56 263.22,445.712 303.948,429.424 318.9,474.264 347.396,381.648 362.692,386.352 328.956,496 309.276,496 294.14,450.576 260.58,464 "
         id="polygon5230"
         transform="matrix(0.26458333,0,0,0.26458333,-41.626819,38.119043)" />
      <path
         id="path5234"
         d="m 84.061904,110.08571 c 0,-2.159 -0.810681,-4.1275 -2.144181,-5.61975 -0.78105,-0.8763 -1.11125,-2.1082 -0.872069,-3.25755 0.4064,-1.960033 0.127,-4.068233 -0.9525,-5.939367 -1.0795,-1.871133 -2.766481,-3.16865 -4.66725,-3.795183 -1.113362,-0.3683 -2.017181,-1.27 -2.385481,-2.385483 -0.626531,-1.900767 -1.92405,-3.58775 -3.795181,-4.66725 -1.871138,-1.0795 -3.979338,-1.361017 -5.939369,-0.9525 -1.14935,0.239183 -2.38125,-0.09102 -3.25755,-0.872067 -1.49225,-1.3335 -3.46075,-2.144183 -5.61975,-2.144183 -2.159,0 -4.1275,0.810683 -5.61975,2.144183 -0.8763,0.78105 -2.1082,1.11125 -3.25755,0.872067 -1.96003,-0.4064 -4.06823,-0.127 -5.93936,0.9525 -1.87114,1.0795 -3.16865,2.766483 -3.79519,4.66725 -0.3683,1.113366 -1.27,2.017183 -2.38548,2.385483 -1.90077,0.626533 -3.58775,1.92405 -4.66725,3.795183 -1.0795,1.871134 -1.36102,3.979334 -0.9525,5.939367 0.23918,1.14935 -0.091,2.38125 -0.87207,3.25755 -1.3335,1.49225 -2.14418,3.46075 -2.14418,5.61975 0,2.159 0.81068,4.1275 2.14418,5.61975 0.78105,0.8763 1.11125,2.1082 0.87207,3.25755 -0.4064,1.96003 -0.127,4.06823 0.9525,5.93937 1.0795,1.87113 2.76648,3.16865 4.66725,3.79518 1.11337,0.3683 2.01718,1.27 2.38548,2.38548 0.62654,1.90077 1.92405,3.58775 3.79519,4.66725 1.87113,1.0795 3.97933,1.36102 5.93936,0.9525 1.14935,-0.23918 2.38125,0.091 3.25755,0.87207 1.49225,1.3335 3.46075,2.14418 5.61975,2.14418 2.159,0 4.1275,-0.81068 5.61975,-2.14418 0.8763,-0.78105 2.1082,-1.11125 3.25755,-0.87207 1.960031,0.4064 4.068231,0.127 5.939369,-0.9525 1.871131,-1.0795 3.16865,-2.76648 3.795181,-4.66725 0.3683,-1.11336 1.27,-2.01718 2.385481,-2.38548 1.900769,-0.62653 3.58775,-1.92405 4.66725,-3.79518 1.0795,-1.87114 1.361019,-3.97934 0.9525,-5.93937 -0.239181,-1.14935 0.091,-2.38125 0.872069,-3.25755 1.3335,-1.49225 2.144181,-3.46075 2.144181,-5.61975 z"
         style="fill:#ffffff;stroke-width:0.26458332"
         inkscape:connector-curvature="0" />
      <path
         inkscape:connector-curvature="0"
         style="fill:#db3f89;fill-opacity:0.94117647;stroke-width:0.26458332"
         d="m 54.428573,129.13571 c -10.5029,0 -19.05,-8.5471 -19.05,-19.05 0,-10.5029 8.5471,-19.05 19.05,-19.05 10.5029,0 19.05,8.5471 19.05,19.05 0,10.5029 -8.5471,19.05 -19.05,19.05 z m 0,-33.866667 c -8.17033,0 -14.81666,6.646337 -14.81666,14.816667 0,8.17033 6.64633,14.81667 14.81666,14.81667 8.170331,0 14.816669,-6.64634 14.816669,-14.81667 0,-8.17033 -6.646338,-14.816667 -14.816669,-14.816667 z"
         id="path5236" />
      <path
         inkscape:connector-curvature="0"
         style="fill:#000000;stroke-width:0.26458332"
         d="m 54.428573,141.83571 c -2.595031,0 -5.090581,-0.9525 -7.02945,-2.68182 -0.37253,-0.33443 -0.93133,-0.47836 -1.41816,-0.381 -2.54212,0.5334 -5.17949,0.10372 -7.42739,-1.19168 -2.2479,-1.29752 -3.93276,-3.36973 -4.74768,-5.83777 -0.15663,-0.47413 -0.56515,-0.88265 -1.03928,-1.03716 -2.46592,-0.81492 -4.54025,-2.49979 -5.83565,-4.74769 -1.29752,-2.2479 -1.71874,-4.88738 -1.19169,-7.42738 0.1016,-0.48683 -0.0466,-1.04563 -0.381,-1.41605 -1.7272,-1.93887 -2.6797,-4.43442 -2.6797,-7.02945 0,-2.59503 0.9525,-5.09058 2.68182,-7.02945 0.33232,-0.37253 0.4826,-0.92922 0.381,-1.41817 -0.52917,-2.542113 -0.10583,-5.17948 1.19168,-7.42738 1.29752,-2.2479 3.36974,-3.932767 5.83777,-4.747683 0.47413,-0.156634 0.88265,-0.56515 1.03717,-1.039284 0.81491,-2.465916 2.49978,-4.54025 4.74768,-5.83565 2.2479,-1.2954 4.88315,-1.722966 7.42738,-1.191683 0.48895,0.09948 1.04775,-0.04657 1.41605,-0.381 3.877741,-3.458633 10.183281,-3.458633 14.0589,0 0.372531,0.332317 0.931331,0.47625 1.418169,0.381 2.544231,-0.529167 5.1816,-0.103717 7.427381,1.191683 2.2479,1.297517 3.932769,3.369734 4.747681,5.837767 0.156638,0.474133 0.56515,0.88265 1.039288,1.037167 2.465912,0.814916 4.54025,2.499783 5.83565,4.747683 1.297512,2.2479 1.718731,4.885267 1.191681,7.42738 -0.1016,0.48684 0.0466,1.04564 0.381,1.41605 1.7272,1.94099 2.6797,4.43654 2.6797,7.03157 0,2.59503 -0.9525,5.09058 -2.681819,7.02945 -0.332312,0.37253 -0.4826,0.92922 -0.381,1.41817 0.529169,2.54211 0.105838,5.17948 -1.191681,7.42738 -1.297519,2.2479 -3.369731,3.93277 -5.837769,4.74768 -0.474131,0.15664 -0.88265,0.56515 -1.037162,1.03929 -0.814919,2.46591 -2.499788,4.54025 -4.747688,5.83565 -2.2479,1.2954 -4.887381,1.72296 -7.427381,1.19168 -0.486831,-0.0974 -1.043519,0.0466 -1.41605,0.381 -1.938869,1.7272 -4.434419,2.6797 -7.02945,2.6797 z m -8.12376,-7.3279 c 1.42875,0 2.832101,0.52282 3.91371,1.48802 2.321991,2.07221 6.098119,2.07221 8.422219,0 1.380062,-1.2319 3.285062,-1.74414 5.096931,-1.36737 1.519769,0.31327 3.103031,0.0614 4.449231,-0.71332 1.3462,-0.77681 2.35585,-2.0193 2.842688,-3.49673 0.579962,-1.75683 1.97485,-3.1496 3.729562,-3.73168 1.47955,-0.48684 2.722038,-1.4986 3.49885,-2.84269 0.776819,-1.3462 1.030819,-2.92735 0.713319,-4.44923 -0.376769,-1.81187 0.13335,-3.71687 1.367369,-5.09905 1.03505,-1.15993 1.60655,-2.65642 1.60655,-4.21005 0,-1.55363 -0.5715,-3.05012 -1.60655,-4.21217 -1.2319,-1.38006 -1.742019,-3.28506 -1.367369,-5.09693 0.315381,-1.524 0.0635,-3.103033 -0.713319,-4.449233 -0.776812,-1.3462 -2.0193,-2.35585 -3.496731,-2.842684 -1.756831,-0.579966 -3.1496,-1.97485 -3.731681,-3.729566 -0.486838,-1.47955 -1.4986,-2.722034 -2.842688,-3.49885 -1.3462,-0.776817 -2.92735,-1.030817 -4.449231,-0.713317 -1.820331,0.37465 -3.718981,-0.135467 -5.09905,-1.367367 -2.321981,-2.072216 -6.098109,-2.072216 -8.422209,0 -1.380072,1.234017 -3.282951,1.74625 -5.096941,1.367367 -1.524,-0.3175 -3.10515,-0.06562 -4.44923,0.713317 -1.3462,0.776816 -2.35585,2.0193 -2.84268,3.496733 -0.57997,1.756833 -1.97485,3.1496 -3.72957,3.731683 -1.47955,0.486834 -2.72203,1.4986 -3.49885,2.842684 -0.77682,1.3462 -1.03082,2.925233 -0.71332,4.449233 0.37677,1.81187 -0.13335,3.71687 -1.36736,5.09905 -1.03505,1.15993 -1.60655,2.65642 -1.60655,4.21005 0,1.55363 0.5715,3.05012 1.60655,4.21217 1.2319,1.38006 1.74201,3.28506 1.36736,5.09693 -0.31538,1.52188 -0.0635,3.10303 0.71332,4.45135 0.77682,1.34408 2.0193,2.35373 3.49673,2.84268 1.75684,0.57997 3.1496,1.97485 3.73169,3.72957 0.48683,1.47955 1.4986,2.72203 2.84268,3.49885 1.34408,0.77893 2.92735,1.0287 4.44923,0.71332 0.3937,-0.0825 0.78952,-0.12277 1.18534,-0.12277 z"
         id="path5238" />
      <text
         xml:space="preserve"
         style="font-style:normal;font-variant:normal;font-weight:normal;font-stretch:normal;font-size:4.22829628px;line-height:0px;font-family:'Proxima Nova';-inkscape-font-specification:'Proxima Nova';letter-spacing:0px;word-spacing:0px;fill:#000000;fill-opacity:1;stroke:none;stroke-width:0.39640275px;stroke-linecap:butt;stroke-linejoin:miter;stroke-opacity:1"
         x="48.532082"
         y="119.16581"
         id="text6556"><tspan
           sodipodi:role="line"
           id="tspan6554"
           x="48.532082"
           y="119.16581"
           style="font-style:normal;font-variant:normal;font-weight:normal;font-stretch:normal;font-size:25.36977768px;font-family:'Nirmala UI';-inkscape-font-specification:'Nirmala UI';stroke-width:0.39640275px">1</tspan></text>
    </g>
  </g>
</svg>
