<?xml version="1.0" encoding="UTF-8" standalone="no"?>
<!-- Created with Inkscape (http://www.inkscape.org/) -->

<svg
   xmlns:dc="http://purl.org/dc/elements/1.1/"
   xmlns:cc="http://creativecommons.org/ns#"
   xmlns:rdf="http://www.w3.org/1999/02/22-rdf-syntax-ns#"
   xmlns:svg="http://www.w3.org/2000/svg"
   xmlns="http://www.w3.org/2000/svg"
   xmlns:sodipodi="http://sodipodi.sourceforge.net/DTD/sodipodi-0.dtd"
   xmlns:inkscape="http://www.inkscape.org/namespaces/inkscape"
   width="100mm"
   height="100mm"
   viewBox="0 0 100 100"
   version="1.1"
   id="svg8"
   inkscape:version="0.92.0 r15299"
   sodipodi:docname="1st.svg">
  <defs
     id="defs2" />
  <sodipodi:namedview
     id="base"
     pagecolor="#ffffff"
     bordercolor="#666666"
     borderopacity="1.0"
     inkscape:pageopacity="0.0"
     inkscape:pageshadow="2"
     inkscape:zoom="1.4"
     inkscape:cx="312.30294"
     inkscape:cy="185.34629"
     inkscape:document-units="mm"
     inkscape:current-layer="layer1"
     showgrid="false"
     fit-margin-top="0"
     fit-margin-left="0"
     fit-margin-right="0"
     fit-margin-bottom="0"
     inkscape:window-width="1920"
     inkscape:window-height="1017"
     inkscape:window-x="1358"
     inkscape:window-y="-8"
     inkscape:window-maximized="1" />
  <metadata
     id="metadata5">
    <rdf:RDF>
      <cc:Work
         rdf:about="">
        <dc:format>image/svg+xml</dc:format>
        <dc:type
           rdf:resource="http://purl.org/dc/dcmitype/StillImage" />
        <dc:title></dc:title>
      </cc:Work>
    </rdf:RDF>
  </metadata>
  <g
     inkscape:label="Layer 1"
     inkscape:groupmode="layer"
     id="layer1"
     transform="translate(300.58556,-146.11166)">
    <circle
       style="opacity:1;fill:#000000;fill-opacity:0;fill-rule:nonzero;stroke:none;stroke-width:0.09710534;stroke-linejoin:round;stroke-miterlimit:4;stroke-dasharray:none;stroke-dashoffset:0;stroke-opacity:1"
       id="path4566"
       cx="-250.58556"
       cy="196.11166"
       r="50" />
    <g
       id="g4656"
       transform="matrix(0.77340184,0,0,0.77340184,-61.824874,50.684509)">
      <g
         transform="matrix(0.13921885,0,0,0.13921885,-279.70552,152.39568)"
         id="g4487">
        <path
           inkscape:connector-curvature="0"
           d="M 461.913,4.279 C 460.64,1.663 457.985,0.004 455.077,0.004 h -48.331 -52.863 -48.341 c -2.337,0 -4.544,1.075 -5.986,2.914 L 256.001,58.509 212.443,2.917 C 211.001,1.078 208.794,0.003 206.457,0.003 H 158.175 C 158.158,0.003 158.141,0 158.123,0 h -52.867 c -0.014,0 -0.027,0.003 -0.042,0.003 H 56.923 c -2.909,0 -5.563,1.66 -6.836,4.275 -1.273,2.616 -0.943,5.728 0.852,8.019 l 101.294,129.275 c -2.517,3.422 -3.949,7.603 -3.949,12.011 v 74.413 c -33.565,29.787 -54.758,73.224 -54.758,121.523 0,89.593 72.887,162.481 162.479,162.481 89.592,0 162.479,-72.888 162.479,-162.48 0,-48.304 -21.196,-91.744 -54.767,-121.532 v -74.405 c 0,-4.489 -1.484,-8.629 -3.964,-11.993 L 461.062,12.296 c 1.794,-2.289 2.125,-5.402 0.851,-8.017 z M 357.585,15.21 h 33.544 v 10e-4 l -84.525,107.878 -16.775,-21.41 z m -48.34,10e-4 h 29.02 l -58.096,74.14 -14.506,-18.514 z m -106.489,0 112.393,143.441 h -20.221 -8.789 L 173.744,15.211 Z M 323.163,173.86 v 27.721 c -20.48,-9.334 -43.222,-14.541 -67.158,-14.541 -23.94,0 -46.685,5.208 -67.168,14.545 V 173.86 Z M 72.542,15.211 h 29.016 l 39.915,50.94 c 2.59,3.305 7.369,3.885 10.675,1.296 l 0.001,-0.001 c 3.305,-2.59 3.885,-7.369 1.296,-10.675 L 120.88,15.211 h 33.546 L 266.819,158.652 H 233.273 L 176.144,85.741 c -2.59,-3.305 -7.369,-3.885 -10.675,-1.296 l -0.001,0.001 c -3.305,2.59 -3.885,7.369 -1.296,10.675 l 49.78,63.531 h -29.016 z m 101.087,153.671 v 40.643 c -3.464,2.046 -6.846,4.217 -10.139,6.506 V 155.942 Z M 403.277,349.52 c 0,81.206 -66.066,147.273 -147.271,147.273 -81.206,0 -147.271,-66.066 -147.271,-147.273 0,-81.207 66.065,-147.272 147.27,-147.272 81.205,0 147.272,66.066 147.272,147.272 z M 338.329,165.459 c -0.001,-0.011 -0.004,-0.021 -0.005,-0.032 -0.033,-0.311 -0.091,-0.613 -0.161,-0.911 -0.016,-0.07 -0.036,-0.14 -0.054,-0.21 -0.072,-0.274 -0.158,-0.54 -0.26,-0.801 -0.015,-0.04 -0.027,-0.079 -0.043,-0.118 -0.123,-0.301 -0.265,-0.591 -0.424,-0.871 -0.029,-0.053 -0.063,-0.102 -0.093,-0.154 -0.143,-0.239 -0.298,-0.468 -0.466,-0.69 -0.026,-0.034 -0.045,-0.072 -0.072,-0.105 l -10.227,-13.052 h 16.915 c 2.795,0 5.069,2.274 5.069,5.069 v 62.441 c -3.292,-2.288 -6.673,-4.459 -10.138,-6.505 v -43.263 c 10e-4,-0.271 -0.014,-0.536 -0.041,-0.798 z m 8.37,-31.867 c -1.064,-0.172 -2.147,-0.287 -3.259,-0.287 H 317.92 L 410.449,15.21 h 29.01 z"
           id="path4485" />
      </g>
      <g
         transform="matrix(0.13921885,0,0,0.13921885,-279.70552,152.39568)"
         id="g4495">
        <g
           id="g4493">
          <path
             id="path4491"
             d="m 367.355,295.946 c -1.919,-3.99 -6.781,-5.561 -10.632,-3.378 l -0.007,0.004 c -3.486,1.976 -4.827,6.311 -3.088,9.921 7.027,14.584 10.714,30.703 10.714,47.027 0,61.159 -50.939,110.644 -112.62,108.255 -56.227,-2.178 -101.795,-47.746 -103.973,-103.973 -2.389,-61.679 47.096,-112.62 108.255,-112.62 29.881,0 58.127,12.209 78.556,33.729 2.767,2.915 7.307,3.208 10.396,0.637 3.367,-2.803 3.69,-7.883 0.676,-11.062 -23.299,-24.57 -55.529,-38.51 -89.627,-38.51 -69.745,0 -126.176,58.092 -123.451,128.43 2.484,64.12 54.449,116.084 118.569,118.567 70.338,2.723 128.427,-53.708 128.427,-123.451 10e-4,-18.59 -4.196,-36.95 -12.195,-53.576 z"
             inkscape:connector-curvature="0"
             style="fill:#db3f89;fill-opacity:0.94117647" />
        </g>
      </g>
      <g
         transform="matrix(0.13921885,0,0,0.13921885,-279.70552,152.39568)"
         id="g4501">
        <g
           id="g4499">
          <text
             id="text4645"
             y="403.25229"
             x="209.66322"
             style="font-style:normal;font-variant:normal;font-weight:normal;font-stretch:normal;font-size:20.27184105px;line-height:0px;font-family:'Proxima Nova';-inkscape-font-specification:'Proxima Nova';letter-spacing:0px;word-spacing:0px;fill:#000000;fill-opacity:1;stroke:none;stroke-width:1.90048504px;stroke-linecap:butt;stroke-linejoin:miter;stroke-opacity:1"
             xml:space="preserve"><tspan
               style="font-style:normal;font-variant:normal;font-weight:normal;font-stretch:normal;font-size:182.44656372px;font-family:'Myriad Hebrew';-inkscape-font-specification:'Myriad Hebrew';stroke-width:1.90048504px"
               y="403.25229"
               x="209.66322"
               id="tspan4643"
               sodipodi:role="line">1</tspan></text>
        </g>
      </g>
    </g>
    <g
       id="g4503"
       transform="matrix(0.13921885,0,0,0.13921885,-279.70552,152.39568)" />
    <g
       id="g4505"
       transform="matrix(0.13921885,0,0,0.13921885,-279.70552,152.39568)" />
    <g
       id="g4507"
       transform="matrix(0.13921885,0,0,0.13921885,-279.70552,152.39568)" />
    <g
       id="g4509"
       transform="matrix(0.13921885,0,0,0.13921885,-279.70552,152.39568)" />
    <g
       id="g4511"
       transform="matrix(0.13921885,0,0,0.13921885,-279.70552,152.39568)" />
    <g
       id="g4513"
       transform="matrix(0.13921885,0,0,0.13921885,-279.70552,152.39568)" />
    <g
       id="g4515"
       transform="matrix(0.13921885,0,0,0.13921885,-279.70552,152.39568)" />
    <g
       id="g4517"
       transform="matrix(0.13921885,0,0,0.13921885,-279.70552,152.39568)" />
    <g
       id="g4519"
       transform="matrix(0.13921885,0,0,0.13921885,-279.70552,152.39568)" />
    <g
       id="g4521"
       transform="matrix(0.13921885,0,0,0.13921885,-279.70552,152.39568)" />
    <g
       id="g4523"
       transform="matrix(0.13921885,0,0,0.13921885,-279.70552,152.39568)" />
    <g
       id="g4525"
       transform="matrix(0.13921885,0,0,0.13921885,-279.70552,152.39568)" />
    <g
       id="g4527"
       transform="matrix(0.13921885,0,0,0.13921885,-279.70552,152.39568)" />
    <g
       id="g4529"
       transform="matrix(0.13921885,0,0,0.13921885,-279.70552,152.39568)" />
    <g
       id="g4531"
       transform="matrix(0.13921885,0,0,0.13921885,-279.70552,152.39568)" />
  </g>
</svg>
