<?xml version="1.0" encoding="UTF-8" standalone="no"?>
<!-- Created with Inkscape (http://www.inkscape.org/) -->

<svg
   xmlns:dc="http://purl.org/dc/elements/1.1/"
   xmlns:cc="http://creativecommons.org/ns#"
   xmlns:rdf="http://www.w3.org/1999/02/22-rdf-syntax-ns#"
   xmlns:svg="http://www.w3.org/2000/svg"
   xmlns="http://www.w3.org/2000/svg"
   xmlns:sodipodi="http://sodipodi.sourceforge.net/DTD/sodipodi-0.dtd"
   xmlns:inkscape="http://www.inkscape.org/namespaces/inkscape"
   width="100mm"
   height="100mm"
   viewBox="0 0 100 100"
   version="1.1"
   id="svg6564"
   inkscape:version="0.92.0 r15299"
   sodipodi:docname="2.svg">
  <defs
     id="defs6558" />
  <sodipodi:namedview
     id="base"
     pagecolor="#ffffff"
     bordercolor="#666666"
     borderopacity="1.0"
     inkscape:pageopacity="0.0"
     inkscape:pageshadow="2"
     inkscape:zoom="1.4"
     inkscape:cx="135.28893"
     inkscape:cy="185.06877"
     inkscape:document-units="mm"
     inkscape:current-layer="layer1"
     showgrid="false"
     fit-margin-top="0"
     fit-margin-left="0"
     fit-margin-right="0"
     fit-margin-bottom="0"
     inkscape:window-width="1920"
     inkscape:window-height="1017"
     inkscape:window-x="1358"
     inkscape:window-y="-8"
     inkscape:window-maximized="1" />
  <metadata
     id="metadata6561">
    <rdf:RDF>
      <cc:Work
         rdf:about="">
        <dc:format>image/svg+xml</dc:format>
        <dc:type
           rdf:resource="http://purl.org/dc/dcmitype/StillImage" />
        <dc:title></dc:title>
      </cc:Work>
    </rdf:RDF>
  </metadata>
  <g
     inkscape:label="Layer 1"
     inkscape:groupmode="layer"
     id="layer1"
     transform="translate(-64.904762,-47.428574)">
    <circle
       style="opacity:1;fill:#000000;fill-opacity:0;fill-rule:nonzero;stroke:none;stroke-width:0.11661877;stroke-linejoin:round;stroke-miterlimit:4;stroke-dasharray:none;stroke-dashoffset:0;stroke-opacity:1"
       id="path6541"
       cx="114.90476"
       cy="97.428574"
       r="50" />
    <polygon
       style="fill:#5399e3;fill-opacity:1"
       points="465.508,464 431.948,450.576 416.812,496 397.132,496 363.396,386.352 378.692,381.648 407.188,474.264 422.14,429.424 462.868,445.712 427.38,346.56 442.444,341.168 486.404,464 "
       id="polygon5228"
       transform="matrix(0.17659902,0,0,0.17659902,50.791549,40.181879)" />
    <polygon
       style="fill:#5399e3;fill-opacity:1"
       points="347.396,381.648 362.692,386.352 328.956,496 309.276,496 294.14,450.576 260.58,464 239.684,464 283.644,341.168 298.708,346.56 263.22,445.712 303.948,429.424 318.9,474.264 "
       id="polygon5230"
       transform="matrix(0.17659902,0,0,0.17659902,50.791549,40.181879)" />
    <path
       id="path5234"
       d="m 134.68385,88.216814 c 0,-1.441047 -0.54109,-2.754944 -1.43115,-3.750963 -0.52132,-0.584896 -0.74172,-1.407142 -0.58207,-2.174288 0.27125,-1.308245 0.0848,-2.715387 -0.63576,-3.964294 -0.72053,-1.248908 -1.84652,-2.11495 -3.11521,-2.533137 -0.74312,-0.245824 -1.34639,-0.847675 -1.59221,-1.592217 -0.41819,-1.268687 -1.28423,-2.394682 -2.53314,-3.115206 -1.24891,-0.720524 -2.65605,-0.908426 -3.96429,-0.635757 -0.76715,0.159646 -1.5894,-0.06075 -2.17429,-0.58207 -0.99602,-0.890059 -2.30992,-1.431158 -3.75097,-1.431158 -1.44104,0 -2.75494,0.541099 -3.75096,1.431158 -0.58489,0.52132 -1.40714,0.741716 -2.17429,0.58207 -1.30824,-0.271255 -2.71538,-0.08477 -3.96429,0.635757 -1.24891,0.720524 -2.11495,1.846519 -2.53314,3.115206 -0.24582,0.74313 -0.84767,1.346393 -1.59221,1.592217 -1.26869,0.418187 -2.394685,1.284229 -3.115209,2.533137 -0.720524,1.248907 -0.908425,2.656049 -0.635756,3.964294 0.159644,0.767146 -0.06074,1.589392 -0.582073,2.174288 -0.890059,0.996019 -1.431155,2.309916 -1.431155,3.750963 0,1.441048 0.541096,2.754945 1.431155,3.750964 0.521322,0.584896 0.741717,1.407141 0.582073,2.174288 -0.271257,1.308242 -0.08477,2.715384 0.635756,3.964297 0.720524,1.248904 1.846519,2.114947 3.115209,2.533137 0.74313,0.24582 1.34639,0.84767 1.59221,1.59221 0.41819,1.26869 1.28423,2.39468 2.53314,3.11521 1.24891,0.72052 2.65605,0.90842 3.96429,0.63576 0.76715,-0.15965 1.5894,0.0607 2.17429,0.58207 0.99602,0.89006 2.30992,1.43115 3.75096,1.43115 1.44105,0 2.75495,-0.54109 3.75097,-1.43115 0.58489,-0.52132 1.40714,-0.74172 2.17429,-0.58207 1.30824,0.27125 2.71538,0.0848 3.96429,-0.63576 1.24891,-0.72053 2.11495,-1.84652 2.53314,-3.11521 0.24582,-0.74312 0.84767,-1.34639 1.59221,-1.59221 1.26869,-0.41819 2.39468,-1.284233 3.11521,-2.533137 0.72052,-1.248913 0.90843,-2.656055 0.63576,-3.964297 -0.15965,-0.767147 0.0607,-1.589392 0.58207,-2.174288 0.89006,-0.996019 1.43115,-2.309916 1.43115,-3.750964 z"
       style="fill:#ffffff;stroke-width:0.17659903"
       inkscape:connector-curvature="0" />
    <path
       inkscape:connector-curvature="0"
       style="fill:#5399e3;fill-opacity:1;stroke-width:0.17659903"
       d="m 114.90476,100.93194 c -7.01027,0 -12.71512,-5.70485 -12.71512,-12.715126 0,-7.010275 5.70485,-12.715128 12.71512,-12.715128 7.01028,0 12.71513,5.704853 12.71513,12.715128 0,7.010276 -5.70485,12.715126 -12.71513,12.715126 z m 0,-22.604671 c -5.45337,0 -9.88954,4.436171 -9.88954,9.889545 0,5.453375 4.43617,9.889549 9.88954,9.889549 5.45338,0 9.88955,-4.436174 9.88955,-9.889549 0,-5.453374 -4.43617,-9.889545 -9.88955,-9.889545 z"
       id="path5236" />
    <path
       inkscape:connector-curvature="0"
       style="fill:#000000;stroke-width:0.17659903"
       d="m 114.90476,109.4087 c -1.73208,0 -3.39776,-0.63576 -4.69188,-1.79001 -0.24865,-0.22322 -0.62162,-0.31929 -0.94656,-0.2543 -1.69677,0.35602 -3.45711,0.0692 -4.9575,-0.79541 -1.50038,-0.86604 -2.62496,-2.24916 -3.16889,-3.89648 -0.10454,-0.31646 -0.37721,-0.58913 -0.69368,-0.69226 -1.6459,-0.54393 -3.030435,-1.66851 -3.895064,-3.1689 -0.866043,-1.500384 -1.147191,-3.262133 -0.795407,-4.957485 0.06782,-0.32494 -0.0311,-0.697918 -0.254301,-0.945158 -1.15284,-1.294119 -1.788597,-2.959801 -1.788597,-4.691883 0,-1.732081 0.635757,-3.397763 1.790012,-4.691882 0.221811,-0.24865 0.322117,-0.620218 0.254302,-0.946574 -0.3532,-1.696759 -0.07064,-3.457101 0.795401,-4.957484 0.866042,-1.500386 2.249167,-2.624969 3.896484,-3.168894 0.31646,-0.104547 0.58913,-0.377216 0.69227,-0.693681 0.54392,-1.645903 1.6685,-3.03044 3.16889,-3.895068 1.50038,-0.864629 3.25931,-1.150013 4.95748,-0.795402 0.32636,0.0664 0.69933,-0.03108 0.94516,-0.254303 2.58824,-2.308502 6.79694,-2.308502 9.38377,0 0.24865,0.221809 0.62163,0.317878 0.94657,0.254303 1.69818,-0.353199 3.45851,-0.06923 4.95749,0.795402 1.50038,0.866041 2.62497,2.249165 3.16889,3.896481 0.10455,0.316465 0.37721,0.589134 0.69368,0.692268 1.6459,0.543925 3.03044,1.668508 3.89507,3.168894 0.86604,1.500383 1.14719,3.260725 0.7954,4.957484 -0.0678,0.324946 0.0311,0.697924 0.2543,0.945158 1.15284,1.295535 1.7886,2.961217 1.7886,4.693298 0,1.732082 -0.63576,3.397764 -1.79001,4.691883 -0.22181,0.24865 -0.32212,0.620218 -0.2543,0.946573 0.3532,1.69676 0.0706,3.457099 -0.7954,4.957485 -0.86605,1.500385 -2.24917,2.624975 -3.89649,3.168895 -0.31646,0.10455 -0.58913,0.37721 -0.69226,0.69368 -0.54393,1.6459 -1.66851,3.03044 -3.1689,3.89507 -1.50038,0.86463 -3.26213,1.15001 -4.95748,0.7954 -0.32494,-0.065 -0.69651,0.0311 -0.94516,0.2543 -1.29412,1.15284 -2.9598,1.7886 -4.69189,1.7886 z m -5.42229,-4.89109 c 0.95364,0 1.89032,0.34896 2.61225,0.9932 1.54984,1.38311 4.07026,1.38311 5.6215,0 0.92114,-0.82225 2.19265,-1.16415 3.402,-0.91267 1.01439,0.20909 2.07116,0.041 2.96969,-0.47611 0.89854,-0.51849 1.57244,-1.34781 1.89739,-2.33393 0.3871,-1.17262 1.31813,-2.102238 2.48933,-2.490755 0.98754,-0.324946 1.81686,-1.000258 2.33535,-1.897383 0.51849,-0.898535 0.68803,-1.953892 0.47611,-2.969688 -0.25148,-1.209353 0.089,-2.480866 0.91267,-3.403415 0.69085,-0.774208 1.07231,-1.773058 1.07231,-2.810045 0,-1.036986 -0.38146,-2.035836 -1.07231,-2.811459 -0.82225,-0.921137 -1.16273,-2.192648 -0.91267,-3.402 0.21051,-1.017212 0.0424,-2.071153 -0.47611,-2.969691 -0.51849,-0.898536 -1.34781,-1.572437 -2.33393,-1.89738 -1.17262,-0.387104 -2.10224,-1.318136 -2.49075,-2.489338 -0.32495,-0.987542 -1.00026,-1.816852 -1.89739,-2.335346 -0.89853,-0.518495 -1.95389,-0.68803 -2.96969,-0.476111 -1.21499,0.250064 -2.48227,-0.09042 -3.40341,-0.912664 -1.54983,-1.383124 -4.07025,-1.383124 -5.6215,0 -0.92114,0.823658 -2.19124,1.165553 -3.402,0.912664 -1.01722,-0.211919 -2.07257,-0.0438 -2.96969,0.476111 -0.89854,0.518494 -1.57244,1.347804 -1.89738,2.333934 -0.38711,1.172614 -1.31814,2.102233 -2.48934,2.49075 -0.98754,0.324943 -1.816849,1.000257 -2.335348,1.89738 -0.518496,0.898538 -0.68803,1.952479 -0.476112,2.969691 0.251479,1.209352 -0.08901,2.480863 -0.912659,3.403415 -0.690856,0.774208 -1.072309,1.773058 -1.072309,2.810044 0,1.036987 0.381453,2.035837 1.072309,2.81146 0.822246,0.921134 1.162722,2.192647 0.912659,3.402 -0.210505,1.015796 -0.04238,2.071153 0.476112,2.971101 0.518499,0.897123 1.347808,1.571024 2.333928,1.89738 1.17262,0.387107 2.10224,1.318135 2.49076,2.489345 0.32494,0.98754 1.00026,1.81684 1.89738,2.33534 0.89712,0.51991 1.95389,0.68662 2.96969,0.47612 0.26277,-0.0551 0.52697,-0.0819 0.79116,-0.0819 z"
       id="path5238" />
    <text
       xml:space="preserve"
       style="font-style:normal;font-variant:normal;font-weight:normal;font-stretch:normal;font-size:2.82222223px;line-height:0px;font-family:'Proxima Nova';-inkscape-font-specification:'Proxima Nova';letter-spacing:0px;word-spacing:0px;fill:#000000;fill-opacity:1;stroke:none;stroke-width:0.26458332px;stroke-linecap:butt;stroke-linejoin:miter;stroke-opacity:1"
       x="110.34483"
       y="94.244354"
       id="text6556"><tspan
         sodipodi:role="line"
         id="tspan6554"
         x="110.34483"
         y="94.244354"
         style="font-style:normal;font-variant:normal;font-weight:normal;font-stretch:normal;font-size:16.93333244px;font-family:'Nirmala UI';-inkscape-font-specification:'Nirmala UI';stroke-width:0.26458332px">2</tspan></text>
  </g>
</svg>
