<?xml version="1.0" encoding="UTF-8" standalone="no"?>
<!-- Created with Inkscape (http://www.inkscape.org/) -->

<svg
   xmlns:dc="http://purl.org/dc/elements/1.1/"
   xmlns:cc="http://creativecommons.org/ns#"
   xmlns:rdf="http://www.w3.org/1999/02/22-rdf-syntax-ns#"
   xmlns:svg="http://www.w3.org/2000/svg"
   xmlns="http://www.w3.org/2000/svg"
   xmlns:sodipodi="http://sodipodi.sourceforge.net/DTD/sodipodi-0.dtd"
   xmlns:inkscape="http://www.inkscape.org/namespaces/inkscape"
   width="100mm"
   height="100mm"
   viewBox="0 0 100 100"
   version="1.1"
   id="svg7199"
   inkscape:version="0.92.0 r15299"
   sodipodi:docname="3.svg">
  <defs
     id="defs7193" />
  <sodipodi:namedview
     id="base"
     pagecolor="#ffffff"
     bordercolor="#666666"
     borderopacity="1.0"
     inkscape:pageopacity="0.0"
     inkscape:pageshadow="2"
     inkscape:zoom="1.4"
     inkscape:cx="154.18957"
     inkscape:cy="177.37623"
     inkscape:document-units="mm"
     inkscape:current-layer="layer1"
     showgrid="false"
     fit-margin-top="0"
     fit-margin-left="0"
     fit-margin-right="0"
     fit-margin-bottom="0"
     inkscape:window-width="1920"
     inkscape:window-height="1017"
     inkscape:window-x="1358"
     inkscape:window-y="-8"
     inkscape:window-maximized="1" />
  <metadata
     id="metadata7196">
    <rdf:RDF>
      <cc:Work
         rdf:about="">
        <dc:format>image/svg+xml</dc:format>
        <dc:type
           rdf:resource="http://purl.org/dc/dcmitype/StillImage" />
        <dc:title></dc:title>
      </cc:Work>
    </rdf:RDF>
  </metadata>
  <g
     inkscape:label="Layer 1"
     inkscape:groupmode="layer"
     id="layer1"
     transform="translate(-28.619049,-47.428574)">
    <circle
       style="opacity:1;fill:#000000;fill-opacity:0;fill-rule:nonzero;stroke:none;stroke-width:0.11661877;stroke-linejoin:round;stroke-miterlimit:4;stroke-dasharray:none;stroke-dashoffset:0;stroke-opacity:1"
       id="path6541"
       cx="78.619049"
       cy="97.428574"
       r="50" />
    <polygon
       style="fill:#f7931e;fill-opacity:1"
       points="462.868,445.712 427.38,346.56 442.444,341.168 486.404,464 465.508,464 431.948,450.576 416.812,496 397.132,496 363.396,386.352 378.692,381.648 407.188,474.264 422.14,429.424 "
       id="polygon5228"
       transform="matrix(0.17659902,0,0,0.17659902,14.505835,40.181876)" />
    <polygon
       style="fill:#f7931e;fill-opacity:1"
       points="298.708,346.56 263.22,445.712 303.948,429.424 318.9,474.264 347.396,381.648 362.692,386.352 328.956,496 309.276,496 294.14,450.576 260.58,464 239.684,464 283.644,341.168 "
       id="polygon5230"
       transform="matrix(0.17659902,0,0,0.17659902,14.505835,40.181876)" />
    <path
       id="path5234"
       d="m 98.398137,88.216812 c 0,-1.441048 -0.541091,-2.754945 -1.43115,-3.750964 -0.521322,-0.584896 -0.741719,-1.407141 -0.58207,-2.174287 0.271248,-1.308246 0.0848,-2.715387 -0.635762,-3.964295 -0.720529,-1.248907 -1.846519,-2.114949 -3.115209,-2.533137 -0.74312,-0.245824 -1.346391,-0.847674 -1.59221,-1.592217 -0.41819,-1.268686 -1.284229,-2.394681 -2.533139,-3.115205 -1.24891,-0.720524 -2.656052,-0.908426 -3.964289,-0.635757 -0.767152,0.159646 -1.589403,-0.06075 -2.174291,-0.58207 -0.996021,-0.890059 -2.309921,-1.431158 -3.750971,-1.431158 -1.44104,0 -2.75494,0.541099 -3.750961,1.431158 -0.584888,0.52132 -1.407139,0.741716 -2.174288,0.58207 -1.30824,-0.271255 -2.715381,-0.08477 -3.964291,0.635757 -1.24891,0.720524 -2.11495,1.846519 -2.53314,3.115205 -0.245819,0.74313 -0.847669,1.346393 -1.592209,1.592217 -1.268691,0.418188 -2.394686,1.28423 -3.11521,2.533137 -0.720524,1.248908 -0.908425,2.656049 -0.635756,3.964295 0.159644,0.767146 -0.06074,1.589391 -0.582073,2.174287 -0.890059,0.996019 -1.431155,2.309916 -1.431155,3.750964 0,1.441048 0.541096,2.754945 1.431155,3.750963 0.521322,0.584896 0.741717,1.407142 0.582073,2.174288 -0.271257,1.308243 -0.08477,2.715384 0.635756,3.964297 0.720524,1.248905 1.846519,2.11495 3.11521,2.53314 0.74313,0.24582 1.34639,0.84767 1.592209,1.59221 0.41819,1.26869 1.28423,2.39468 2.53314,3.11521 1.24891,0.72052 2.656051,0.90842 3.964291,0.63576 0.767149,-0.15965 1.5894,0.0607 2.174288,0.58207 0.996021,0.89006 2.309921,1.43115 3.750961,1.43115 1.44105,0 2.75495,-0.54109 3.750971,-1.43115 0.584888,-0.52132 1.407139,-0.74172 2.174291,-0.58207 1.308237,0.27125 2.715379,0.0848 3.964289,-0.63576 1.24891,-0.72053 2.114949,-1.84652 2.533139,-3.11521 0.245819,-0.74312 0.84767,-1.34639 1.59221,-1.59221 1.26869,-0.41819 2.39468,-1.284235 3.115209,-2.53314 0.720521,-1.248913 0.908431,-2.656054 0.635762,-3.964297 -0.159649,-0.767146 0.0607,-1.589392 0.58207,-2.174288 0.890059,-0.996018 1.43115,-2.309915 1.43115,-3.750963 z"
       style="fill:#ffffff;stroke-width:0.17659904"
       inkscape:connector-curvature="0" />
    <path
       inkscape:connector-curvature="0"
       style="fill:#f7931e;fill-opacity:1;stroke-width:0.17659904"
       d="m 78.619046,100.93194 c -7.01027,0 -12.715121,-5.704853 -12.715121,-12.715128 0,-7.010276 5.704851,-12.715129 12.715121,-12.715129 7.010281,0 12.715131,5.704853 12.715131,12.715129 0,7.010275 -5.70485,12.715128 -12.715131,12.715128 z m 0,-22.604674 c -5.45337,0 -9.88954,4.436171 -9.88954,9.889546 0,5.453374 4.43617,9.889548 9.88954,9.889548 5.45338,0 9.889551,-4.436174 9.889551,-9.889548 0,-5.453375 -4.436171,-9.889546 -9.889551,-9.889546 z"
       id="path5236" />
    <path
       inkscape:connector-curvature="0"
       style="fill:#000000;stroke-width:0.17659904"
       d="m 78.619046,109.4087 c -1.732079,0 -3.397761,-0.63576 -4.69188,-1.79001 -0.24865,-0.22322 -0.62162,-0.31929 -0.94656,-0.2543 -1.696771,0.35602 -3.45711,0.0692 -4.957501,-0.79541 -1.500378,-0.86604 -2.62496,-2.24916 -3.168888,-3.89648 -0.104542,-0.31646 -0.377211,-0.58913 -0.693682,-0.69226 -1.645899,-0.54393 -3.030434,-1.66851 -3.895063,-3.168903 -0.866043,-1.500383 -1.147191,-3.262133 -0.795407,-4.957485 0.06782,-0.32494 -0.0311,-0.697918 -0.254301,-0.945158 -1.15284,-1.294119 -1.788597,-2.959801 -1.788597,-4.691882 0,-1.732082 0.635757,-3.397764 1.790012,-4.691883 0.221811,-0.24865 0.322117,-0.620218 0.254302,-0.946573 -0.3532,-1.69676 -0.07064,-3.457102 0.795401,-4.957485 0.866042,-1.500386 2.249167,-2.624968 3.896484,-3.168893 0.31646,-0.104548 0.589129,-0.377217 0.692269,-0.693681 0.54392,-1.645903 1.668502,-3.03044 3.168891,-3.895068 1.500381,-0.864629 3.259309,-1.150013 4.957479,-0.795402 0.326361,0.0664 0.699331,-0.03108 0.945161,-0.254303 2.588241,-2.308502 6.796939,-2.308502 9.383771,0 0.24865,0.221809 0.62163,0.317878 0.94657,0.254303 1.698178,-0.353199 3.458509,-0.06923 4.95749,0.795402 1.500378,0.866041 2.624968,2.249165 3.168888,3.896481 0.10455,0.316464 0.377211,0.589133 0.693682,0.692268 1.645899,0.543925 3.03044,1.668507 3.895069,3.168893 0.86604,1.500383 1.147191,3.260725 0.795401,4.957485 -0.0678,0.324945 0.0311,0.697923 0.254299,0.945158 1.15284,1.295534 1.788599,2.961216 1.788599,4.693298 0,1.732081 -0.635759,3.397763 -1.790009,4.691882 -0.221808,0.248651 -0.32212,0.620218 -0.254299,0.946574 0.3532,1.696759 0.0706,3.457099 -0.795401,4.957484 -0.86605,1.500388 -2.24917,2.624978 -3.89649,3.168898 -0.31646,0.10455 -0.589129,0.37721 -0.692261,0.69368 -0.543928,1.6459 -1.668507,3.03044 -3.168899,3.89507 -1.50038,0.86463 -3.26213,1.15001 -4.957479,0.7954 -0.32494,-0.065 -0.69651,0.0311 -0.94516,0.2543 -1.29412,1.15284 -2.959802,1.7886 -4.691891,1.7886 z m -5.422289,-4.89109 c 0.95364,0 1.890318,0.34896 2.61225,0.9932 1.549839,1.38311 4.07026,1.38311 5.621499,0 0.921141,-0.82225 2.192649,-1.16415 3.401999,-0.91267 1.014391,0.20909 2.071161,0.041 2.969691,-0.47611 0.898541,-0.51849 1.57244,-1.34781 1.897391,-2.33393 0.387099,-1.17262 1.31813,-2.102241 2.48933,-2.490758 0.987538,-0.324945 1.816859,-1.000257 2.33535,-1.897383 0.51849,-0.898535 0.68803,-1.953892 0.476109,-2.969688 -0.251481,-1.209352 0.089,-2.480866 0.91267,-3.403415 0.690851,-0.774208 1.072311,-1.773058 1.072311,-2.810044 0,-1.036987 -0.38146,-2.035837 -1.072311,-2.81146 -0.822248,-0.921136 -1.16273,-2.192647 -0.91267,-3.401999 0.210511,-1.017212 0.0424,-2.071153 -0.476109,-2.969692 -0.518491,-0.898535 -1.347812,-1.572437 -2.33393,-1.89738 -1.17262,-0.387104 -2.102241,-1.318135 -2.49075,-2.489337 -0.324951,-0.987542 -1.00026,-1.816852 -1.897391,-2.335346 -0.89853,-0.518495 -1.953889,-0.68803 -2.969691,-0.476111 -1.214988,0.250064 -2.482268,-0.09042 -3.403409,-0.912664 -1.549829,-1.383124 -4.07025,-1.383124 -5.621499,0 -0.921142,0.823658 -2.19124,1.165553 -3.402,0.912664 -1.017222,-0.211919 -2.072571,-0.0438 -2.969691,0.476111 -0.898541,0.518494 -1.57244,1.347804 -1.89738,2.333933 -0.387109,1.172615 -1.318141,2.102234 -2.48934,2.49075 -0.987539,0.324943 -1.816849,1.000258 -2.335348,1.89738 -0.518496,0.898539 -0.68803,1.95248 -0.476112,2.969692 0.251479,1.209352 -0.08901,2.480863 -0.912659,3.403414 -0.690856,0.774208 -1.072309,1.773058 -1.072309,2.810045 0,1.036986 0.381453,2.035836 1.072309,2.81146 0.822246,0.921133 1.162722,2.192647 0.912659,3.401999 -0.210505,1.015796 -0.04238,2.071153 0.476112,2.971101 0.518499,0.897123 1.347809,1.571025 2.333927,1.89738 1.17262,0.387107 2.102242,1.318138 2.490761,2.489348 0.32494,0.98754 1.00026,1.81684 1.89738,2.33534 0.89712,0.51991 1.95389,0.68662 2.969691,0.47612 0.262769,-0.0551 0.526968,-0.0819 0.79116,-0.0819 z"
       id="path5238" />
    <text
       xml:space="preserve"
       style="font-style:normal;font-variant:normal;font-weight:normal;font-stretch:normal;font-size:2.82222223px;line-height:0px;font-family:'Proxima Nova';-inkscape-font-specification:'Proxima Nova';letter-spacing:0px;word-spacing:0px;fill:#000000;fill-opacity:1;stroke:none;stroke-width:0.26458332px;stroke-linecap:butt;stroke-linejoin:miter;stroke-opacity:1"
       x="74.170746"
       y="94.140999"
       id="text6556"><tspan
         sodipodi:role="line"
         id="tspan6554"
         x="74.170746"
         y="94.140999"
         style="font-style:normal;font-variant:normal;font-weight:normal;font-stretch:normal;font-size:16.93333244px;font-family:'Nirmala UI';-inkscape-font-specification:'Nirmala UI';stroke-width:0.26458332px">3</tspan></text>
  </g>
</svg>
