<?xml version="1.0" encoding="UTF-8" standalone="no"?>
<!-- Created with Inkscape (http://www.inkscape.org/) -->

<svg
   xmlns:dc="http://purl.org/dc/elements/1.1/"
   xmlns:cc="http://creativecommons.org/ns#"
   xmlns:rdf="http://www.w3.org/1999/02/22-rdf-syntax-ns#"
   xmlns:svg="http://www.w3.org/2000/svg"
   xmlns="http://www.w3.org/2000/svg"
   xmlns:sodipodi="http://sodipodi.sourceforge.net/DTD/sodipodi-0.dtd"
   xmlns:inkscape="http://www.inkscape.org/namespaces/inkscape"
   width="100mm"
   height="100mm"
   viewBox="0 0 100 100"
   version="1.1"
   id="svg8373"
   inkscape:version="0.92.0 r15299"
   sodipodi:docname="5.svg">
  <defs
     id="defs8367" />
  <sodipodi:namedview
     id="base"
     pagecolor="#ffffff"
     bordercolor="#666666"
     borderopacity="1.0"
     inkscape:pageopacity="0.0"
     inkscape:pageshadow="2"
     inkscape:zoom="0.49497475"
     inkscape:cx="189.40277"
     inkscape:cy="311.90221"
     inkscape:document-units="mm"
     inkscape:current-layer="layer1"
     showgrid="false"
     fit-margin-top="0"
     fit-margin-left="0"
     fit-margin-right="0"
     fit-margin-bottom="0"
     inkscape:window-width="1920"
     inkscape:window-height="1017"
     inkscape:window-x="1358"
     inkscape:window-y="-8"
     inkscape:window-maximized="1" />
  <metadata
     id="metadata8370">
    <rdf:RDF>
      <cc:Work
         rdf:about="">
        <dc:format>image/svg+xml</dc:format>
        <dc:type
           rdf:resource="http://purl.org/dc/dcmitype/StillImage" />
        <dc:title></dc:title>
      </cc:Work>
    </rdf:RDF>
  </metadata>
  <g
     inkscape:label="Layer 1"
     inkscape:groupmode="layer"
     id="layer1"
     transform="translate(-45.25,-44.404762)">
    <circle
       style="opacity:1;fill:#000000;fill-opacity:0;fill-rule:nonzero;stroke:none;stroke-width:0.11661877;stroke-linejoin:round;stroke-miterlimit:4;stroke-dasharray:none;stroke-dashoffset:0;stroke-opacity:1"
       id="path6541"
       cx="95.25"
       cy="94.404762"
       r="50" />
    <polygon
       style="fill:#c12c74;fill-opacity:1"
       points="462.868,445.712 427.38,346.56 442.444,341.168 486.404,464 465.508,464 431.948,450.576 416.812,496 397.132,496 363.396,386.352 378.692,381.648 407.188,474.264 422.14,429.424 "
       id="polygon5228"
       transform="matrix(0.17659902,0,0,0.17659902,31.136785,37.158068)" />
    <polygon
       style="fill:#c12c74;fill-opacity:1"
       points="298.708,346.56 263.22,445.712 303.948,429.424 318.9,474.264 347.396,381.648 362.692,386.352 328.956,496 309.276,496 294.14,450.576 260.58,464 239.684,464 283.644,341.168 "
       id="polygon5230"
       transform="matrix(0.17659902,0,0,0.17659902,31.136785,37.158068)" />
    <path
       id="path5234"
       d="m 115.02909,85.193003 c 0,-1.441048 -0.54109,-2.754945 -1.43115,-3.750961 -0.52132,-0.584896 -0.74172,-1.407144 -0.58207,-2.17429 0.27125,-1.308246 0.0848,-2.715387 -0.63576,-3.964292 -0.72053,-1.24891 -1.84652,-2.114952 -3.11521,-2.53314 -0.74312,-0.245824 -1.34639,-0.847674 -1.59221,-1.592217 -0.41819,-1.268684 -1.28423,-2.394679 -2.53314,-3.115203 -1.24891,-0.720524 -2.65605,-0.908426 -3.96429,-0.635757 -0.76715,0.159646 -1.589403,-0.06075 -2.174291,-0.58207 -0.996018,-0.890059 -2.309921,-1.431158 -3.750968,-1.431158 -1.44104,0 -2.754943,0.541099 -3.750964,1.431158 -0.584888,0.52132 -1.407139,0.741716 -2.174288,0.58207 -1.30824,-0.271255 -2.715379,-0.08477 -3.964289,0.635757 -1.24891,0.720524 -2.114952,1.846519 -2.533142,3.115203 -0.245819,0.74313 -0.847667,1.346393 -1.592207,1.592217 -1.268693,0.418188 -2.394688,1.28423 -3.115212,2.53314 -0.720524,1.248905 -0.908423,2.656046 -0.635754,3.964292 0.159644,0.767146 -0.06074,1.589394 -0.582073,2.17429 -0.890061,0.996016 -1.431155,2.309913 -1.431155,3.750961 0,1.441048 0.541094,2.754945 1.431155,3.750966 0.521322,0.584893 0.741717,1.407139 0.582073,2.174285 -0.271259,1.308243 -0.08477,2.715387 0.635754,3.964297 0.720524,1.248905 1.846519,2.114952 3.115212,2.533142 0.74313,0.245819 1.346388,0.847672 1.592207,1.592212 0.41819,1.268685 1.284232,2.394675 2.533142,3.115205 1.24891,0.72052 2.656049,0.90842 3.964289,0.63576 0.767149,-0.15965 1.5894,0.0607 2.174288,0.58207 0.996021,0.89006 2.309924,1.43115 3.750964,1.43115 1.441047,0 2.75495,-0.54109 3.750968,-1.43115 0.584888,-0.52132 1.407141,-0.74172 2.174291,-0.58207 1.30824,0.27125 2.71538,0.0848 3.96429,-0.63576 1.24891,-0.72053 2.11495,-1.84652 2.53314,-3.115205 0.24582,-0.743122 0.84767,-1.346393 1.59221,-1.592212 1.26869,-0.41819 2.39468,-1.284237 3.11521,-2.533142 0.72052,-1.24891 0.90843,-2.656054 0.63576,-3.964297 -0.15965,-0.767146 0.0607,-1.589392 0.58207,-2.174285 0.89006,-0.996021 1.43115,-2.309918 1.43115,-3.750966 z"
       style="fill:#ffffff;stroke-width:0.17659904"
       inkscape:connector-curvature="0" />
    <path
       inkscape:connector-curvature="0"
       style="fill:#c12c74;fill-opacity:1;stroke-width:0.17659904"
       d="m 95.250001,97.908134 c -7.010271,0 -12.715124,-5.704853 -12.715124,-12.715131 0,-7.010276 5.704853,-12.715129 12.715124,-12.715129 7.010279,0 12.715129,5.704853 12.715129,12.715129 0,7.010278 -5.70485,12.715131 -12.715129,12.715131 z m 0,-22.604674 c -5.453373,0 -9.889541,4.436168 -9.889541,9.889543 0,5.453377 4.436168,9.889548 9.889541,9.889548 5.453379,0 9.889549,-4.436171 9.889549,-9.889548 0,-5.453375 -4.43617,-9.889543 -9.889549,-9.889543 z"
       id="path5236" />
    <path
       inkscape:connector-curvature="0"
       style="fill:#000000;stroke-width:0.17659904"
       d="m 95.250001,106.38489 c -1.732079,0 -3.397764,-0.63576 -4.691881,-1.79001 -0.24865,-0.22322 -0.62162,-0.31929 -0.94656,-0.2543 -1.696773,0.35602 -3.457112,0.0692 -4.957503,-0.79541 -1.500378,-0.86604 -2.624958,-2.24916 -3.168888,-3.896477 -0.104542,-0.31646 -0.377211,-0.589129 -0.693682,-0.692261 -1.645899,-0.543928 -3.030432,-1.66851 -3.895061,-3.168904 -0.866045,-1.500383 -1.147191,-3.26213 -0.795409,-4.957482 0.06782,-0.32494 -0.0311,-0.697918 -0.254299,-0.945158 -1.15284,-1.294122 -1.788599,-2.959801 -1.788599,-4.691885 0,-1.732079 0.635759,-3.397761 1.790012,-4.691883 0.221811,-0.24865 0.322117,-0.620215 0.254304,-0.946573 -0.3532,-1.69676 -0.07064,-3.457099 0.795401,-4.957485 0.86604,-1.500386 2.249165,-2.624968 3.896482,-3.168893 0.31646,-0.104548 0.589129,-0.377217 0.692269,-0.693679 0.54392,-1.645903 1.668502,-3.03044 3.168891,-3.895068 1.500383,-0.864629 3.259309,-1.150013 4.957479,-0.795402 0.326361,0.0664 0.699331,-0.03108 0.945163,-0.254303 2.588239,-2.308502 6.796937,-2.308502 9.383771,0 0.248649,0.221809 0.621629,0.317878 0.946569,0.254303 1.69818,-0.353199 3.45851,-0.06923 4.95749,0.795402 1.50038,0.866041 2.62497,2.249165 3.16889,3.896481 0.10455,0.316462 0.37721,0.589131 0.69368,0.692266 1.6459,0.543925 3.03044,1.668507 3.89507,3.168893 0.86604,1.500386 1.14719,3.260725 0.7954,4.957485 -0.0678,0.324945 0.0311,0.697923 0.2543,0.945158 1.15284,1.295537 1.7886,2.961219 1.7886,4.693298 0,1.732084 -0.63576,3.397763 -1.79001,4.691885 -0.22181,0.24865 -0.32212,0.620218 -0.2543,0.946571 0.3532,1.696762 0.0706,3.457101 -0.7954,4.957487 -0.86605,1.500386 -2.24917,2.624979 -3.89649,3.168899 -0.31646,0.10455 -0.58913,0.377206 -0.69226,0.693679 -0.54393,1.645896 -1.66851,3.030436 -3.1689,3.895066 -1.50038,0.86463 -3.26213,1.15001 -4.95748,0.7954 -0.32494,-0.065 -0.69651,0.0311 -0.945159,0.2543 -1.294122,1.15284 -2.959804,1.7886 -4.69189,1.7886 z m -5.422292,-4.89109 c 0.95364,0 1.890318,0.34896 2.612252,0.9932 1.549837,1.38311 4.070261,1.38311 5.621499,0 0.921139,-0.82225 2.19265,-1.16415 3.402,-0.91267 1.01439,0.20909 2.07116,0.041 2.96969,-0.47611 0.89854,-0.51849 1.57244,-1.347808 1.89739,-2.333926 0.3871,-1.17262 1.31813,-2.102244 2.48933,-2.490761 0.98754,-0.324945 1.81686,-1.000257 2.33535,-1.89738 0.51849,-0.898538 0.68803,-1.953895 0.47611,-2.969691 -0.25148,-1.209352 0.089,-2.480863 0.91267,-3.403415 0.69085,-0.774205 1.07231,-1.773055 1.07231,-2.810044 0,-1.036987 -0.38146,-2.035834 -1.07231,-2.81146 -0.82225,-0.921136 -1.16273,-2.192647 -0.91267,-3.401999 0.21051,-1.017212 0.0424,-2.071153 -0.47611,-2.969689 -0.51849,-0.898538 -1.34781,-1.57244 -2.33393,-1.89738 -1.17262,-0.387107 -2.10224,-1.318138 -2.49075,-2.48934 -0.32495,-0.98754 -1.00026,-1.81685 -1.89739,-2.335344 -0.89853,-0.518495 -1.95389,-0.68803 -2.96969,-0.476111 -1.21499,0.250064 -2.482271,-0.09042 -3.40341,-0.912664 -1.549828,-1.383124 -4.070252,-1.383124 -5.621499,0 -0.921144,0.823658 -2.191242,1.165553 -3.402002,0.912664 -1.017222,-0.211919 -2.072571,-0.0438 -2.969691,0.476111 -0.898541,0.518494 -1.57244,1.347804 -1.89738,2.333931 -0.387107,1.172615 -1.318141,2.102234 -2.489338,2.490753 -0.987541,0.32494 -1.816851,1.000255 -2.33535,1.89738 -0.518496,0.898536 -0.68803,1.952477 -0.476112,2.969689 0.251481,1.209352 -0.08901,2.480863 -0.912659,3.403417 -0.690854,0.774208 -1.072309,1.773055 -1.072309,2.810042 0,1.036989 0.381455,2.035839 1.072309,2.81146 0.822248,0.921136 1.162722,2.192647 0.912659,3.401999 -0.210505,1.015796 -0.04238,2.071153 0.476112,2.971104 0.518499,0.89712 1.347809,1.571022 2.333927,1.89738 1.17262,0.387104 2.102244,1.318136 2.490761,2.489348 0.32494,0.987539 1.00026,1.816836 1.89738,2.335336 0.89712,0.51991 1.953892,0.68662 2.969691,0.47612 0.262771,-0.0551 0.526968,-0.0819 0.79116,-0.0819 z"
       id="path5238" />
    <text
       xml:space="preserve"
       style="font-style:normal;font-variant:normal;font-weight:normal;font-stretch:normal;font-size:2.82222223px;line-height:0px;font-family:'Proxima Nova';-inkscape-font-specification:'Proxima Nova';letter-spacing:0px;word-spacing:0px;fill:#000000;fill-opacity:1;stroke:none;stroke-width:0.26458332px;stroke-linecap:butt;stroke-linejoin:miter;stroke-opacity:1"
       x="90.566055"
       y="91.017975"
       id="text6556"><tspan
         sodipodi:role="line"
         id="tspan6554"
         x="90.566055"
         y="91.017975"
         style="font-style:normal;font-variant:normal;font-weight:normal;font-stretch:normal;font-size:16.93333244px;font-family:'Nirmala UI';-inkscape-font-specification:'Nirmala UI';stroke-width:0.26458332px">5</tspan></text>
  </g>
</svg>
